<?xml version="1.0" encoding="UTF-8"?>
<!DOCTYPE svg PUBLIC "-//W3C//DTD SVG 1.0//EN" "http://www.w3.org/TR/2001/REC-SVG-20010904/DTD/svg10.dtd">
<!-- Creator: CorelDRAW X6 -->
<svg xmlns="http://www.w3.org/2000/svg" xml:space="preserve" width="408px" height="408px" version="1.0" style="shape-rendering:geometricPrecision; text-rendering:geometricPrecision; image-rendering:optimizeQuality; fill-rule:evenodd; clip-rule:evenodd"
viewBox="0 0 408 408"
 xmlns:xlink="http://www.w3.org/1999/xlink">
 <defs>
  <style type="text/css">
   <![CDATA[
    .fil0 {fill:yellow}
   ]]>
  </style>
 </defs>
 <g id="Layer_x0020_1">
  <metadata id="CorelCorpID_0Corel-Layer"/>
  <path class="fil0" d="M204 4c24,0 47,4 68,12l-137 0c21,-8 44,-12 68,-12zm95 24c10,5 19,11 28,18l-245 0c9,-7 18,-13 28,-18l190 0zm42 30c6,6 12,12 17,18l-307 0c5,-6 11,-12 17,-18l273 0zm26 30c4,6 8,12 11,18l-349 0c3,-6 7,-12 11,-18l326 0zm18 30c3,6 5,12 8,18l-376 0c2,-6 5,-12 8,-18l361 0zm11 30c2,6 3,12 4,18l-393 0c1,-6 3,-12 4,-18l384 0zm6 30c1,6 1,12 2,18l-400 0c0,-6 1,-12 2,-18l397 0zm2 30c0,6 -1,12 -1,18l-398 0c-1,-6 -1,-12 -1,-18l400 0zm-3 30c-1,6 -2,12 -4,18l-386 0c-2,-6 -3,-12 -4,-18l394 0zm-8 30c-2,6 -4,12 -7,18l-365 0c-3,-6 -5,-12 -7,-18l379 0zm-13 30c-3,6 -7,12 -11,18l-331 0c-4,-6 -8,-12 -11,-18l353 0zm-20 30c-5,6 -10,12 -16,18l-282 0c-6,-6 -11,-12 -16,-18l314 0zm-29 30c-8,7 -17,13 -25,18l-204 0c-9,-5 -17,-11 -25,-18l255 0zm-49 30c-24,10 -51,16 -78,16 -28,0 -54,-6 -78,-16l157 0z"/>
 </g>
</svg>
